<svg data-name="logo black and white transparent" xmlns="http://www.w3.org/2000/svg" width="339.406" height="64.96"><g data-name="Group 1"><path data-name="Path 1" d="M0 0h15.925v17.982a8.7 8.7 0 014.014-3.082 13.81 13.81 0 015.01-.962 6.753 6.753 0 014.147 1.26 10.367 10.367 0 012.754 3.052A13.41 13.41 0 0133.376 22a14.909 14.909 0 01.465 3.351v7.7a14.868 14.868 0 01-.929 5.176 13.837 13.837 0 01-2.721 4.512 13.243 13.243 0 01-4.413 3.185 14.515 14.515 0 01-6.072 1.194 6.477 6.477 0 01-3.616-.863 11.911 11.911 0 01-2.256-1.924q-.963-1.061-1.89-1.924a3.471 3.471 0 00-2.456-.863 3.021 3.021 0 00-1.46.4A4.72 4.72 0 006.7 43.029a6.709 6.709 0 00-1 1.56 4.4 4.4 0 00-.4 1.86H3.981V3.981a2.583 2.583 0 00-.829-1.791 2.5 2.5 0 00-1.825-.863H0zm20.105 16.721a2.535 2.535 0 00-1.327.464 4.817 4.817 0 00-1.36 1.394 8.6 8.6 0 00-1.062 2.388 12.514 12.514 0 00-.431 3.517v17.983a3.786 3.786 0 00.829 2.156 2.3 2.3 0 001.825 1.162 5.661 5.661 0 00.962-.1 1.92 1.92 0 001.1-.73 5.234 5.234 0 00.9-1.957 15.445 15.445 0 00.359-3.848V19.242a2.908 2.908 0 00-.531-1.858 1.578 1.578 0 00-1.264-.663z"/><path data-name="Path 2" d="M68.214 17.138a5.776 5.776 0 00-4.247-1.725c-.224 0-.431.037-.646.058a12.278 12.278 0 00-11.159 7.041V14.66H36.237v1.327h1.327a2.5 2.5 0 011.825.863 2.583 2.583 0 01.829 1.791v23.888a2.579 2.579 0 01-.829 1.791 2.492 2.492 0 01-1.825.863h-1.327v1.327h19.906v-1.331h-1.327a2.492 2.492 0 01-1.825-.863 2.576 2.576 0 01-.829-1.791V26.856c.551-2.3 1.776-5.877 4.29-7.521 3-1.96 1.816-.147 1.674.762a6.545 6.545 0 00-.13 1.288 5.972 5.972 0 1010.219-4.247z"/><path data-name="Path 3" d="M66.763 30.258a6.858 6.858 0 002.853-.664 11.02 11.02 0 002.654-1.691 9.285 9.285 0 001.958-2.323 5.016 5.016 0 00.763-2.555v-4.379a2.492 2.492 0 00-1.363-2.425 7.131 7.131 0 00-3.284-.7q-.6 0-1.227.033c-.421.023-1.241-.681.186-1.26a10.523 10.523 0 013.364-.365 26.692 26.692 0 017.166.8 14.65 14.65 0 014.346 1.89 6.9 6.9 0 012.157 2.19 3.992 3.992 0 01.6 1.759v22.121c0 1.549 1.756 2.438 3.42 2.438 3.773 0 2.707 1.273.874 1.273a37.5 37.5 0 00-4.626.413 11.193 11.193 0 01-2.587.3 14.425 14.425 0 01-2.754-.265 11.815 11.815 0 01-2.555-.8 9.181 9.181 0 01-2.09-1.26 4.349 4.349 0 01-1.294-1.66 12.517 12.517 0 01-4.081 2.893 11.9 11.9 0 01-4.944 1.094 10.781 10.781 0 01-3.948-.664 7.75 7.75 0 01-2.787-1.791 7.611 7.611 0 01-1.659-2.587 8.212 8.212 0 01-.564-2.986 8.918 8.918 0 01.6-3.218 8.5 8.5 0 011.791-2.82 8.893 8.893 0 012.95-2.028 10.185 10.185 0 014.081-.763zm3.185 11.479a2.416 2.416 0 00.564 1.56 1.7 1.7 0 001.361.7 2.939 2.939 0 002.024-1.261 5.192 5.192 0 001.094-3.517V26.807a12.293 12.293 0 01-1.924 2.09 13.153 13.153 0 00-1.493 1.393 5.591 5.591 0 00-1.028 1.692 10.588 10.588 0 00-.531 3.052v1.227q0 .963-.033 2.057c-.023.73-.033 1.427-.033 2.09v1.329z"/><path data-name="Path 4" d="M109.727 45.124v1.327H89.82v-1.327h1.327a2.4 2.4 0 001.825-.863 2.517 2.517 0 00.829-1.791V18.579a2.583 2.583 0 00-.829-1.791 2.5 2.5 0 00-1.825-.863H89.82v-1.327h15.925v27.868a2.576 2.576 0 00.829 1.791 2.489 2.489 0 001.825.863zM93.801 6.767a5.772 5.772 0 011.726-4.243 6.089 6.089 0 018.493 0 5.774 5.774 0 011.725 4.247 5.772 5.772 0 01-1.725 4.247 5.972 5.972 0 01-10.219-4.247z"/><path data-name="Path 5" d="M108.98 14.598h15.925v4.113a7.958 7.958 0 013.782-3.65 12.416 12.416 0 015.242-1.128 9.358 9.358 0 013.318.6 11.083 11.083 0 012.853 1.56 8.171 8.171 0 011.99 2.123 4.388 4.388 0 01.73 2.356v21.9a2.578 2.578 0 00.829 1.791 2.491 2.491 0 001.825.863h1.327v1.327h-18.579v-1.332a2.491 2.491 0 001.825-.863 2.579 2.579 0 00.829-1.791V19.242a2.9 2.9 0 00-.531-1.858 1.578 1.578 0 00-1.26-.664 2.535 2.535 0 00-1.327.464 4.817 4.817 0 00-1.36 1.394 8.6 8.6 0 00-1.062 2.388 12.514 12.514 0 00-.431 3.517v17.983a2.576 2.576 0 00.829 1.791 2.489 2.489 0 001.825.863v1.327H108.98v-1.326h1.327a2.493 2.493 0 001.825-.863 2.581 2.581 0 00.829-1.791V18.579a2.583 2.583 0 00-.829-1.791 2.5 2.5 0 00-1.825-.863h-1.327v-1.327z"/><path data-name="Path 6" d="M165.832 45.124v1.327h-19.907v-1.327h1.327a2.494 2.494 0 001.825-.863 2.581 2.581 0 00.829-1.791V18.579a2.583 2.583 0 00-.829-1.791 2.5 2.5 0 00-1.825-.863h-1.327v-1.327h15.925v27.868a2.576 2.576 0 00.829 1.791 2.489 2.489 0 001.825.863zM149.907 6.767a5.772 5.772 0 011.725-4.243 6.089 6.089 0 018.493 0 5.774 5.774 0 011.725 4.247 5.772 5.772 0 01-1.725 4.247 5.972 5.972 0 01-10.218-4.251z"/><path data-name="Path 7" d="M183.406 15.925v-1.327h15.925v27.869a2.576 2.576 0 00.829 1.791 2.489 2.489 0 001.825.863h1.327v1.327h-15.925v-4.114a7.427 7.427 0 01-3.351 3.617 10.114 10.114 0 01-4.744 1.157 11.59 11.59 0 01-3.55-.564 10.8 10.8 0 01-3.152-1.592 8.32 8.32 0 01-2.256-2.488 6.392 6.392 0 01-.863-3.318V18.579a2.582 2.582 0 00-.829-1.791 2.5 2.5 0 00-1.825-.863h-1.327v-1.327h15.925v27.21a2.9 2.9 0 00.531 1.858 1.574 1.574 0 001.261.664 2.65 2.65 0 001.327-.431 4.314 4.314 0 001.36-1.393 9.172 9.172 0 001.062-2.422 12.529 12.529 0 00.431-3.517V18.579a2.583 2.583 0 00-.829-1.791 2.5 2.5 0 00-1.825-.863z"/><path data-name="Path 8" d="M202.98 14.598h15.925v4.113a7.955 7.955 0 013.782-3.65 12.41 12.41 0 015.241-1.128 13.011 13.011 0 015.275 1.062 6.27 6.27 0 013.284 2.787 5.755 5.755 0 013.816-3.185 22.025 22.025 0 015.54-.664 9.356 9.356 0 013.318.6 11.072 11.072 0 012.853 1.56 8.16 8.16 0 011.99 2.123 4.389 4.389 0 01.731 2.356v24.549a40.256 40.256 0 00.629 7.531 15.137 15.137 0 002.091 5.507 9.425 9.425 0 003.882 3.384 14.026 14.026 0 006.07 1.161 4.092 4.092 0 002.191-.664c.705-.443 1.06-.819 1.06-1.128 0-.222-.221-.332-.663-.332a6.006 6.006 0 115.972-5.972 9.478 9.478 0 01-1.426 5.54 9.808 9.808 0 01-3.551 3.119 13.509 13.509 0 01-4.61 1.394 39.079 39.079 0 01-4.613.3 18.86 18.86 0 01-8.327-1.725 17.789 17.789 0 01-5.905-4.513 19.189 19.189 0 01-3.55-6.337 22.641 22.641 0 01-1.194-7.266V19.242a3.933 3.933 0 00-.63-2.455 1.919 1.919 0 00-1.56-.8 3.341 3.341 0 00-2.555 1.66 8.064 8.064 0 00-1.228 4.844v19.975a2.576 2.576 0 00.829 1.791 2.489 2.489 0 001.825.863v1.327h-17.249v-1.326a2.494 2.494 0 001.825-.863 2.581 2.581 0 00.829-1.791V19.242a2.9 2.9 0 00-.531-1.858 1.579 1.579 0 00-1.261-.664 2.531 2.531 0 00-1.327.464 4.8 4.8 0 00-1.36 1.394 8.56 8.56 0 00-1.062 2.388 12.491 12.491 0 00-.431 3.517v17.983a2.578 2.578 0 00.829 1.791 2.491 2.491 0 001.825.863v1.327h-18.578v-1.326h1.327a2.491 2.491 0 001.825-.863 2.579 2.579 0 00.829-1.791V18.579a2.582 2.582 0 00-.829-1.791 2.5 2.5 0 00-1.825-.863h-1.327v-1.327z"/></g><g data-name="Group 2" fill="#fff"><path data-name="Path 9" d="M276.573 45.376v.905h-13.586v-.905h.906a1.7 1.7 0 001.245-.589 1.761 1.761 0 00.566-1.223V17.298a1.764 1.764 0 00-.566-1.223 1.705 1.705 0 00-1.245-.589h-.906v-.906h10.869v28.984a1.759 1.759 0 00.566 1.223 1.7 1.7 0 001.245.589h.906z"/><path data-name="Path 10" d="M282.332 35.232a4.69 4.69 0 001.948-.452 7.545 7.545 0 001.811-1.154 6.341 6.341 0 001.336-1.585 3.421 3.421 0 00.52-1.744v-2.991a1.7 1.7 0 00-.928-1.653 4.87 4.87 0 00-2.242-.476c-.272 0-.552.008-.838.023a3.2 3.2 0 00-.838.158q-.589.181-.589.453c0 .03.03.075.09.136a8.153 8.153 0 012.31 1.54 3.233 3.233 0 011 2.445 4.021 4.021 0 01-4.076 4.076 3.9 3.9 0 01-2.9-1.2 4.123 4.123 0 01-1.177-3.011 4.545 4.545 0 01.724-2.581 5.574 5.574 0 011.924-1.766 9.8 9.8 0 012.74-1.019 14.85 14.85 0 013.215-.34 18.241 18.241 0 014.891.543 9.984 9.984 0 012.966 1.291 4.709 4.709 0 011.472 1.494 2.723 2.723 0 01.408 1.2v14.04q0 1.586.634 1.585a2.251 2.251 0 001.125-.567c.8-.643.8-2.378.8-2.771v-2.058l1.43 1.467.036 2.472a4.5 4.5 0 00-1.38 1.382 6.658 6.658 0 01-1.361 1.729 4.74 4.74 0 01-1.518.634 7.639 7.639 0 01-1.766.2 9.824 9.824 0 01-1.879-.181 8.077 8.077 0 01-1.744-.543 6.243 6.243 0 01-1.427-.861 2.964 2.964 0 01-.883-1.132 8.525 8.525 0 01-2.785 1.97 8.122 8.122 0 01-3.374.747 7.362 7.362 0 01-2.695-.453 5.294 5.294 0 01-1.9-1.223 5.206 5.206 0 01-1.132-1.766 5.6 5.6 0 01-.385-2.038 6.1 6.1 0 01.408-2.2 5.791 5.791 0 011.223-1.924 6.056 6.056 0 012.015-1.381 6.954 6.954 0 012.791-.515zm2.174 7.835a1.649 1.649 0 00.385 1.064 1.157 1.157 0 00.928.475 2.008 2.008 0 001.382-.861 3.543 3.543 0 00.747-2.4v-8.468a8.367 8.367 0 01-1.313 1.427 8.893 8.893 0 00-1.019.951 3.8 3.8 0 00-.7 1.155 7.225 7.225 0 00-.363 2.083v.833q0 .657-.022 1.4t-.022 1.427l-.004.914z"/><path data-name="Path 11" d="M295.941 14.581h10.869v12.273a5.935 5.935 0 012.74-2.106 9.42 9.42 0 013.42-.657 4.606 4.606 0 012.83.861 7.08 7.08 0 011.88 2.083 9.178 9.178 0 011.041 2.558 10.162 10.162 0 01.317 2.287v5.253a10.156 10.156 0 01-.633 3.532 9.458 9.458 0 01-1.857 3.079 9.037 9.037 0 01-3.012 2.174 9.906 9.906 0 01-4.144.815 4.419 4.419 0 01-2.467-.589 8.112 8.112 0 01-1.54-1.314q-.657-.724-1.29-1.314c-.424-.392-1.642-1.219-3.97-.544a3.318 3.318 0 00-1.466 1.349V17.298a1.763 1.763 0 00-.565-1.223 1.706 1.706 0 00-1.245-.589h-.906v-.905zm13.722 11.413a1.726 1.726 0 00-.906.317 3.272 3.272 0 00-.929.951 5.885 5.885 0 00-.725 1.63 8.549 8.549 0 00-.293 2.4v12.273a2.578 2.578 0 00.565 1.472 1.568 1.568 0 001.245.793 3.849 3.849 0 00.657-.068 1.311 1.311 0 00.747-.5 3.558 3.558 0 00.611-1.335 10.528 10.528 0 00.249-2.627V27.717a1.985 1.985 0 00-.362-1.268 1.074 1.074 0 00-.859-.455z"/><path data-name="Path 12" d="M331.077 45.693a1.914 1.914 0 001.472-.611 2.846 2.846 0 00.566-1.97 2.275 2.275 0 00-.861-1.812 9.927 9.927 0 00-2.151-1.335q-1.29-.611-2.807-1.268a13.57 13.57 0 01-2.808-1.63 8.216 8.216 0 01-2.151-2.445 7.213 7.213 0 01-.86-3.696 6.1 6.1 0 01.7-2.966 6.444 6.444 0 011.88-2.151 8.417 8.417 0 012.695-1.291 11.341 11.341 0 013.1-.43 9.577 9.577 0 012.287.272 19.478 19.478 0 012.2.679 3.739 3.739 0 001.4.272 1.288 1.288 0 001.268-.77h.906v8.155h-.906q-.543-1.4-1.11-2.785a12.394 12.394 0 00-1.336-2.468 6.346 6.346 0 00-1.884-1.767 5.26 5.26 0 00-2.786-.679 1.994 1.994 0 00-1.4.679 2.335 2.335 0 00-.68 1.721 2.846 2.846 0 00.227 1.064 3.635 3.635 0 00.838 1.178 10.731 10.731 0 001.676 1.313 22.027 22.027 0 002.695 1.472q1.358.635 2.49 1.223a7.86 7.86 0 011.948 1.4 5.653 5.653 0 011.268 1.992 8.289 8.289 0 01.452 2.944 6.549 6.549 0 01-1.878 4.443 7.664 7.664 0 01-2.513 1.653 9.456 9.456 0 01-3.714.657 8.256 8.256 0 01-2.4-.317 13.563 13.563 0 01-1.857-.7 76.699 76.699 0 01-1.449-.7 2.738 2.738 0 00-1.223-.317 2.152 2.152 0 00-1.11.34 4.306 4.306 0 00-1.2 1.245h-.906V36.091h.906a6.925 6.925 0 00.52 1.948 13.97 13.97 0 001.064 2.06 15.949 15.949 0 001.381 1.9 13.376 13.376 0 001.427 1.472 11.736 11.736 0 002.423 1.63 5.048 5.048 0 002.201.592z"/></g></svg>