<svg id="Layer_1" data-name="Layer 1" xmlns="http://www.w3.org/2000/svg" viewBox="0 0 621.2 187.18"><defs><style>.cls-1{fill:#1d1d1b;}.cls-2{fill:#e30613;}.cls-3{fill:#fff;}</style></defs><title>DS_LOGO_B_2FARVE_POSITIV</title><path class="cls-1" d="M277.56,177.05a17.85,17.85,0,0,1-1.25,7.37,8.36,8.36,0,0,1-3.83,4,17.33,17.33,0,0,1-6.49,1.63c-2.61.2-5.71.31-9.31.31-3.28,0-6.22-.07-8.8-.21s-4.78-.29-6.61-.48a54.83,54.83,0,0,1-5.63-.74v-5c1.41.13,3,.27,4.78.4,1.51.09,3.33.17,5.47.24s4.56.1,7.27.1q4.54,0,7.39-.1a12.69,12.69,0,0,0,4.5-.82,3.93,3.93,0,0,0,2.23-2.24,12.58,12.58,0,0,0,.58-4.32c0-1.54,0-2.76-.11-3.67a3.87,3.87,0,0,0-.75-2.14,3.69,3.69,0,0,0-1.95-1.16,37.21,37.21,0,0,0-3.83-.78l-12.59-1.9a28.91,28.91,0,0,1-7.36-1.84,9.73,9.73,0,0,1-3.79-2.72,6.78,6.78,0,0,1-1.41-3.6c-.13-1.36-.19-2.88-.19-4.56a13.18,13.18,0,0,1,1.48-6.77,9.21,9.21,0,0,1,4.11-3.7,18.21,18.21,0,0,1,6.26-1.53c2.42-.21,5.07-.31,7.93-.31q4.62,0,8.25.21t6.22.47c2,.18,3.81.41,5.32.68v5c-1.25-.09-2.71-.2-4.38-.34-1.41-.09-3.12-.17-5.12-.23s-4.26-.11-6.77-.11q-4.06,0-6.68.11a12.54,12.54,0,0,0-4.15.71,3.68,3.68,0,0,0-2.11,1.94,9.61,9.61,0,0,0-.59,3.77c0,1.27,0,2.3.12,3.1a3.42,3.42,0,0,0,.71,1.9,3.64,3.64,0,0,0,1.91,1.09,28.86,28.86,0,0,0,3.83.71l12.67,1.84a29.48,29.48,0,0,1,7.35,1.8A8.76,8.76,0,0,1,276,168a7.83,7.83,0,0,1,1.36,3.91C277.49,173.38,277.56,175.1,277.56,177.05Z" transform="translate(-8.1 -3.2)"/><path class="cls-1" d="M282.24,189.56V143.32h39.57V149h-30.1v14.28h27.68v5.3H291.71v15.24h30.57v5.71Z" transform="translate(-8.1 -3.2)"/><path class="cls-1" d="M359.23,181.23a9.71,9.71,0,0,1-2.07,5.06,10.17,10.17,0,0,1-5.12,3.06,34.67,34.67,0,0,1-9.47,1q-4,0-7.11-.21c-2.09-.14-3.89-.29-5.4-.48a35.72,35.72,0,0,1-4.53-.74v-5.31c1,.14,2.24.25,3.59.34,1.15.09,2.54.17,4.19.24s3.5.1,5.59.1a52.09,52.09,0,0,0,6-.27,6.2,6.2,0,0,0,3.4-1.29,5.07,5.07,0,0,0,1.53-3.06,35.1,35.1,0,0,0,.35-5.58v-30.8h9.46v30.8A56.49,56.49,0,0,1,359.23,181.23Z" transform="translate(-8.1 -3.2)"/><path class="cls-1" d="M366.52,189.56V143.32H376v40.19h29.32v6.05Z" transform="translate(-8.1 -3.2)"/><path class="cls-1" d="M453,182.45a8.06,8.06,0,0,1-2.85,4.93,13.8,13.8,0,0,1-6.69,2.38,117.7,117.7,0,0,1-24.13,0,14,14,0,0,1-6.68-2.38,7.93,7.93,0,0,1-2.89-4.93,44.23,44.23,0,0,1-.63-8.33v-30.8h9.46v30.8a41.53,41.53,0,0,0,.32,5.88,4.32,4.32,0,0,0,1.6,3,7.26,7.26,0,0,0,3.87,1.12c1.72.12,4.07.17,7,.17s5.29,0,7-.17A7.13,7.13,0,0,0,442.2,183a4.36,4.36,0,0,0,1.6-3,41.53,41.53,0,0,0,.32-5.88v-30.8h9.54v30.8A44.23,44.23,0,0,1,453,182.45Z" transform="translate(-8.1 -3.2)"/><path class="cls-1" d="M494.06,189.56l-24.79-38.83v38.83h-8.76V143.32h13.37l24.72,38.76V143.32h8.83v46.24Z" transform="translate(-8.1 -3.2)"/><path class="cls-1" d="M514.34,189.56V143.32h9.47v46.24Z" transform="translate(-8.1 -3.2)"/><path class="cls-1" d="M576.26,166.92c0,3.53-.07,6.56-.23,9.07a30.54,30.54,0,0,1-1,6.39,9.59,9.59,0,0,1-2.27,4.19,10,10,0,0,1-4.06,2.41,26,26,0,0,1-6.34,1.12c-2.53.18-5.59.28-9.19.28s-6.67-.1-9.22-.28a26.14,26.14,0,0,1-6.38-1.12,10,10,0,0,1-4.06-2.41,9.59,9.59,0,0,1-2.27-4.19,30.54,30.54,0,0,1-1-6.39c-.15-2.51-.23-5.54-.23-9.07s.1-6.84.31-9.49a30.35,30.35,0,0,1,1.17-6.67,10.68,10.68,0,0,1,2.47-4.31,10.45,10.45,0,0,1,4.18-2.52,25.53,25.53,0,0,1,6.26-1.16c2.45-.18,5.36-.27,8.75-.27s6.23.09,8.68.27a25.62,25.62,0,0,1,6.26,1.16,10.52,10.52,0,0,1,4.18,2.52,10.68,10.68,0,0,1,2.47,4.31,30.35,30.35,0,0,1,1.17,6.67Q576.26,161.41,576.26,166.92Zm-9.62-.35c0-4.48-.11-7.95-.35-10.4a10.3,10.3,0,0,0-1.68-5.37,5.48,5.48,0,0,0-4-2c-1.75-.18-4.13-.28-7.15-.28h-.71c-2,0-3.75,0-5.16.07a12.14,12.14,0,0,0-3.56.58,4.92,4.92,0,0,0-2.3,1.6,7.73,7.73,0,0,0-1.33,3.09,27.14,27.14,0,0,0-.59,5.1c-.08,2.07-.12,4.59-.12,7.58v.62c0,2.85,0,5.26.08,7.2a28.32,28.32,0,0,0,.47,4.83,7.49,7.49,0,0,0,1.17,3,4.43,4.43,0,0,0,2.23,1.53,13,13,0,0,0,3.68.54c1.48.05,3.29.07,5.43.07h.71c2.13,0,4,0,5.43-.07a13,13,0,0,0,3.68-.54,4.69,4.69,0,0,0,2.27-1.53,7.2,7.2,0,0,0,1.21-3,29.38,29.38,0,0,0,.47-4.83c0-1.94.07-4.35.07-7.2Z" transform="translate(-8.1 -3.2)"/><path class="cls-1" d="M615.93,189.56l-24.79-38.83v38.83h-8.76V143.32h13.38l24.71,38.76V143.32h8.83v46.24Z" transform="translate(-8.1 -3.2)"/><path class="cls-1" d="M288.14,106.66a81.18,81.18,0,0,1-.66,11.59,13.66,13.66,0,0,1-2.7,6.8,9.9,9.9,0,0,1-5.75,3.2,49.53,49.53,0,0,1-9.81.78H238.17V82.79h30.34a47.56,47.56,0,0,1,9.66.81,10.81,10.81,0,0,1,6,3.34,14.58,14.58,0,0,1,3.09,7.2A72.78,72.78,0,0,1,288.14,106.66Zm-14.7.13q0-5.85-.31-9a11,11,0,0,0-1.25-4.66,3.61,3.61,0,0,0-2.62-1.7,33.32,33.32,0,0,0-4.5-.24H252.4V120.6h12.91a35.19,35.19,0,0,0,4.34-.21,3.29,3.29,0,0,0,2.46-1.49,9,9,0,0,0,1.1-4.12Q273.44,112,273.44,106.79Z" transform="translate(-8.1 -3.2)"/><path class="cls-1" d="M333.22,129l-4.78-11.77H307.72L303,129h-14.7L308,82.79h20.48L348.15,129Zm-15.1-38.49-7.66,19h15.4Z" transform="translate(-8.1 -3.2)"/><path class="cls-1" d="M383.87,129l-20-35.43V129h-13V82.79h19.71l20,35.43V82.79h13V129Z" transform="translate(-8.1 -3.2)"/><path class="cls-1" d="M453.47,116.11a17.85,17.85,0,0,1-1.33,7.61,8.57,8.57,0,0,1-4.1,4.15,19.8,19.8,0,0,1-7.12,1.7c-2.89.23-6.35.34-10.36.34-3.55,0-6.71-.07-9.5-.2s-5.18-.32-7.16-.55c-2.29-.18-4.33-.43-6.1-.74v-6.94c1.36.14,2.92.25,4.69.34,1.52.09,3.34.17,5.48.24s4.59.1,7.35.1q4.38,0,7-.1a12.54,12.54,0,0,0,4-.68,3.21,3.21,0,0,0,1.87-1.77,9.82,9.82,0,0,0,.47-3.43c0-1.14,0-2-.08-2.72a3,3,0,0,0-.54-1.64,3.13,3.13,0,0,0-1.49-.95,18.21,18.21,0,0,0-2.89-.61l-12.59-1.9a31.45,31.45,0,0,1-7.63-1.94,9.72,9.72,0,0,1-4-2.86,7.22,7.22,0,0,1-1.44-3.77c-.14-1.41-.2-3-.2-4.76a13.38,13.38,0,0,1,1.68-7.21,10.16,10.16,0,0,1,4.62-3.94,21.66,21.66,0,0,1,6.88-1.64c2.63-.22,5.48-.34,8.56-.34q5,0,9,.24t6.85.51c2.19.18,4.11.41,5.78.68V90.4c-1.25-.09-2.71-.2-4.38-.34-1.4-.09-3.11-.18-5.12-.27s-4.26-.13-6.76-.13q-4,0-6.42.06a12.36,12.36,0,0,0-3.79.58,2.89,2.89,0,0,0-1.8,1.57,8,8,0,0,0-.43,2.95c0,1,0,1.81.08,2.42a2.43,2.43,0,0,0,.55,1.46,3.09,3.09,0,0,0,1.52.85,23.34,23.34,0,0,0,2.94.58L440.26,102a31.48,31.48,0,0,1,7.62,1.94,9.67,9.67,0,0,1,3.95,2.89,7.77,7.77,0,0,1,1.44,4C453.41,112.35,453.47,114.11,453.47,116.11Z" transform="translate(-8.1 -3.2)"/><path class="cls-1" d="M493.6,129l-14.93-19.38h-7.12V129H457.32V82.79h14.23v18.43h7.12l14.39-18.43h16.18l-18,22.64L510.18,129Z" transform="translate(-8.1 -3.2)"/><path class="cls-2" d="M150.68,129.11h65.19S148.75,70.53,133.07,3.4c0,0-17.86,28.51-15.87,80.91" transform="translate(-8.1 -3.2)"/><path class="cls-3" d="M73.83,156.15C56.53,77.71,75.27,27,83,10.51c18.83,68.36,78.85,128.89,96.58,145.64Z" transform="translate(-8.1 -3.2)"/><path class="cls-2" d="M158.4,152.67H75.52c-10.71-61.5-3.14-104.47,4.92-127,.26-.75,1.81-5,1.81-5s1.67,4.13,2,5c14,40,42.54,82.57,76.62,119.8,1.71,1.86,7.08,7,7.08,7S160.43,152.67,158.4,152.67ZM83.71,3.2S48.87,58.8,71.56,158.69H186.12S103.1,86.24,83.71,3.2Z" transform="translate(-8.1 -3.2)"/><path class="cls-2" d="M31.92,3.4S-9.93,70.21,17.32,190.23H155S55.22,103.17,31.92,3.4Z" transform="translate(-8.1 -3.2)"/></svg>