<svg width="800" height="201" xmlns="http://www.w3.org/2000/svg">

 <g>
  <title>Layer 1</title>
  <g stroke="null" id="svg_10">
   <path stroke="null" id="svg_4" fill="#2694C2" d="m31.69654,72.219c5.80979,-4.95039 13.68112,-7.7006 23.23916,-7.7006c8.62098,0 15.55524,2.75021 20.99021,7.7006c5.24755,5.13373 8.62098,12.10094 9.74545,20.53494l-65.21963,0c1.68677,-8.43399 5.43502,-15.4012 11.24481,-20.53494zm69.53007,33.55262c1.4993,-1.46678 2.62378,-3.66695 2.62378,-6.05047c0,-9.90077 -1.87413,-19.06815 -5.80979,-26.76875c-3.93566,-7.7006 -9.55804,-13.75107 -16.86713,-18.15142c-7.4965,-4.217 -16.11748,-6.60051 -26.05035,-6.60051c-10.12028,0 -19.49091,2.38352 -27.36224,6.96721c-8.0588,4.58369 -14.24341,11.00086 -18.74131,19.06815c-4.4979,8.0673 -6.74683,17.23468 -6.74683,27.50215c0,10.26747 2.43633,19.43485 7.12164,27.50215c4.68531,8.0673 11.4322,14.30112 20.05322,19.06815c8.43357,4.58369 17.99161,6.78386 28.86154,6.78386c5.80979,0 12.18182,-0.91674 18.74126,-3.30026c6.74685,-2.01682 12.18182,-4.95039 16.67972,-8.43399c1.87413,-1.46678 3.18601,-3.48361 3.18601,-5.68378c0,-2.38352 -1.12448,-4.58369 -3.56084,-6.60051c-1.4993,-1.10009 -3.56084,-1.83348 -5.80979,-1.83348c-2.62378,0 -4.68531,0.73339 -6.37203,2.20017c-2.81119,2.20017 -6.18461,3.8503 -10.4951,5.13373c-4.31049,1.46678 -8.24615,2.20017 -12.18182,2.20017c-9.93287,0 -18.36643,-2.75021 -25.3007,-8.25064c-6.93427,-5.31708 -11.05734,-12.65099 -12.36929,-21.63502l74.59026,0c1.87413,-0.73339 4.12308,-1.46678 5.80979,-3.11691z"/>
   <path stroke="null" id="svg_5" fill="#2694C2" d="m169.06996,6.58055c-1.87413,1.83348 -2.81119,4.217 -2.81119,6.96721l0,104.6915c0,6.96721 1.12448,13.01768 3.74825,18.33476c2.43636,5.31708 5.80979,9.53408 10.30769,12.65099c4.4979,3.11691 9.55804,4.40034 15.36783,4.40034l0.37483,0c3.93566,0 7.12168,-0.73339 9.55804,-2.75021c2.43636,-1.65013 3.74825,-4.03365 3.74825,-6.96721c0,-2.75021 -0.93706,-4.95039 -2.62378,-6.96721c-1.4993,-1.65013 -3.74825,-2.75021 -6.18461,-2.75021l-4.87273,0c-2.9986,0 -5.24755,-1.46678 -7.12168,-4.58369c-1.87413,-3.11691 -2.81119,-6.96721 -2.81119,-11.73425l0,-104.6915c0,-2.75021 -0.93706,-4.95039 -2.81119,-6.96721c-1.87413,-1.65013 -4.31049,-2.75021 -7.12168,-2.75021c-2.62378,0.55004 -5.06014,1.46678 -6.74685,3.11691z"/>
   <path stroke="null" id="svg_6" fill="#2694C2" d="m294.8238,71.68563c5.24755,-3.11691 11.43217,-4.58369 17.99161,-4.58369c6.74685,0 12.55664,1.46678 17.80419,4.58369c5.24755,3.11691 9.37063,7.51725 12.36923,12.83433c2.9986,5.50043 4.4979,11.73425 4.4979,18.51811c0,6.78386 -1.4993,13.20103 -4.4979,18.51811c-2.9986,5.31708 -7.12168,9.53408 -12.36923,12.65099c-5.24755,3.11691 -11.24475,4.58369 -17.80419,4.58369c-6.74685,0 -12.74406,-1.46678 -17.99161,-4.58369c-5.24755,-3.11691 -9.37063,-7.33391 -12.36923,-12.65099c-3.18601,-5.31708 -4.4979,-11.73425 -4.4979,-18.51811c0,-6.78386 1.31189,-13.01768 4.4979,-18.51811c2.9986,-5.50043 7.12168,-9.90077 12.36923,-12.83433zm45.72867,-15.03451c-8.24615,-4.58369 -17.42937,-6.96721 -27.73706,-6.96721c-10.4951,0 -19.86573,2.38352 -28.11189,6.96721c-8.24615,4.58369 -14.61818,10.81751 -19.11608,18.70146c-4.68531,8.0673 -6.93427,17.23468 -6.93427,27.68549c0,10.45082 2.06154,19.43485 6.93427,27.50215c4.4979,8.0673 11.05734,14.30112 19.11608,19.06815c8.24615,4.58369 17.42937,6.78386 28.11189,6.78386c10.30769,0 19.67832,-2.01682 27.92447,-6.78386c8.24615,-4.58369 14.43077,-11.00086 19.11608,-19.06815c4.4979,-8.0673 6.93427,-17.05133 6.93427,-27.50215c0,-10.45082 -2.43636,-19.6182 -7.12168,-27.68549c-4.68531,-7.88395 -10.86993,-14.11777 -19.11608,-18.70146z"/>
   <path stroke="null" id="svg_7" fill="#2694C2" d="m503.97623,132.72372c-5.24755,3.11691 -11.24475,4.58369 -17.80419,4.58369c-6.74685,0 -12.74406,-1.46678 -17.99161,-4.58369c-5.24755,-3.11691 -9.37063,-7.33391 -12.36923,-12.65099c-3.18601,-5.31708 -4.4979,-11.73425 -4.4979,-18.51811c0,-6.78386 1.31189,-13.01768 4.4979,-18.51811c2.9986,-5.31708 7.12168,-9.71742 12.36923,-12.83433c5.24755,-3.11691 11.43217,-4.58369 17.99161,-4.58369c6.74685,0 12.55664,1.46678 17.80419,4.58369c5.24755,3.11691 9.37063,7.51725 12.36923,12.83433c2.9986,5.50043 4.4979,11.73425 4.4979,18.51811c0,6.78386 -1.4993,13.20103 -4.4979,18.51811c-2.9986,5.31708 -7.12168,9.53408 -12.36923,12.65099zm9.74545,-77.7394c-8.24615,-4.58369 -17.42937,-6.96721 -27.54965,-6.96721c-10.4951,0 -19.86573,2.38352 -28.11189,6.96721c-8.24615,4.58369 -14.61818,10.81751 -19.11608,18.70146c-4.68531,8.0673 -6.93427,17.23468 -6.93427,27.68549c0,10.45082 1.87413,19.43485 6.18461,27.50215c4.31049,8.0673 10.12028,14.30112 17.80419,19.06815c7.68392,4.58369 16.30489,6.78386 26.05035,6.78386c8.24615,0 15.93007,-1.83348 22.48951,-5.86712c6.74685,-3.8503 11.9944,-9.35073 16.11748,-16.50129l0,9.35073c0,8.0673 -1.4993,15.21785 -4.68531,20.90163c-3.18601,5.68378 -7.4965,10.08412 -12.55664,13.20103c-5.24755,3.11691 -11.24475,4.40034 -17.42937,4.40034c-6.93427,0 -12.93147,-1.10009 -18.17902,-3.48361c-5.43496,-2.38352 -9.74545,-5.68378 -13.30629,-10.26747c-2.06154,-2.75021 -4.87273,-4.03365 -8.05874,-4.03365c-1.87413,0 -3.74825,0.55004 -5.43496,1.65013c-2.81119,1.83348 -4.12308,4.217 -4.12308,6.96721c0,1.83348 0.56224,3.66695 2.06154,5.31708c5.43496,6.96721 12.18182,12.10094 20.42797,15.7679c8.05874,3.66695 16.86713,5.31708 26.23776,5.31708c10.30769,0 19.86573,-2.38352 28.11189,-7.15056c8.24615,-4.76704 14.61818,-11.36755 19.49091,-19.80154c4.4979,-8.25064 6.93427,-17.41803 6.93427,-27.68549l0,-41.43657c0,-10.26747 -2.43636,-19.6182 -7.12168,-27.68549c-4.68531,-7.88395 -11.05734,-14.11777 -19.3035,-18.70146z"/>
   <path stroke="null" id="svg_8" fill="#2694C2" d="m615.48671,51.50072c-1.87413,1.83348 -2.81119,4.217 -2.81119,7.15056l0,85.25665c0,2.93356 0.74965,5.13373 2.81119,7.15056c1.87413,1.83348 4.31049,2.75021 7.30909,2.75021c2.9986,0 5.24755,-0.73339 7.30909,-2.75021c1.68671,-1.83348 2.81119,-4.217 2.81119,-7.15056l0,-85.25665c0,-2.93356 -0.93706,-5.13373 -2.81119,-7.15056c-1.87413,-1.65013 -4.31049,-2.75021 -7.30909,-2.75021c-2.9986,0.18335 -5.24755,1.10009 -7.30909,2.75021z"/>
   <path stroke="null" id="svg_9" fill="#2694C2" d="m715.75244,51.50072c-1.87413,1.83348 -2.81119,4.217 -2.81119,7.15056l0,85.25665c0,2.93356 0.74965,5.13373 2.81119,7.15056c1.87413,1.83348 4.31049,2.75021 7.30909,2.75021c2.9986,0 5.24755,-0.73339 7.30909,-2.75021c1.68671,-1.83348 2.81119,-4.217 2.81119,-7.15056l0,-85.25665c0,-2.93356 -0.93706,-5.13373 -2.81119,-7.15056c-1.87413,-1.65013 -4.31049,-2.75021 -7.30909,-2.75021c-2.9986,0.18335 -5.43496,1.10009 -7.30909,2.75021z"/>
  </g>
  <text transform="rotate(180 772.169 28.3958) matrix(-1.5329 0 0 -1.40202 1799.24 194.885)" stroke="null" xml:space="preserve" text-anchor="start" font-family="Noto Sans JP" font-size="23" id="svg_13" y="126.53442" x="652.77576" stroke-width="0" fill="#2694c2">TM</text>
 </g>
</svg>