<svg
  id="Layer_1"
  class="top-bar__company-logo"
  data-name="Layer 1"
  xmlns="http://www.w3.org/2000/svg"
  width="145"
  height="40"
  viewBox="0 0 1920 499.83"
>
  <path
    class="cls-1"
    d="M1878,72.74h5.62c3.43,0,6.08,2.15,6.08,5.22,0,3.22-2.65,5.37-6.08,5.37H1878ZM1870.54,103H1878V90.08h4.68l7.18,12.89h8.73L1890,89a12,12,0,0,0,7.49-11.2c0-6.9-5.77-12-12.79-12h-14.2Zm-16.23-18.72c0-16,11.86-29.31,28.87-29.31S1912,68.29,1912,84.25c0,15.8-11.86,29.3-28.86,29.3S1854.31,100.05,1854.31,84.25Zm-8,0a36.82,36.82,0,1,0,36.82-36.82A36.51,36.51,0,0,0,1846.36,84.25Z"
    transform="translate(0 -0.08)"
  ></path>
  <path
    class="cls-1"
    d="M211.63,222.64v-93h-93ZM0,11,59,70H271.23V282.24l59,59V11Z"
    transform="translate(0 -0.08)"
  ></path>
  <path
    class="cls-1"
    d="M1775.06,99.8c-30.73,0-54.31,11-70.2,32.79-14.94-21.77-36.89-32.79-65.38-32.79-25.79,0-46.42,8.48-61.46,25.25V105.78h-58.16V344.06H1578V211.13c0-35.32,17.47-56.4,46.75-56.4,25.11,0,39,16.27,39,45.83v143.5h58.15V211.13c0-36.37,16.27-56.4,45.83-56.4,25.63,0,40.32,16.71,40.32,45.83v143.5h58.15V197.34C1866.17,139,1829.56,99.8,1775.06,99.8Zm-368.91,175c-12.9,12.9-29.36,19.43-48.92,19.43s-36-6.53-48.87-19.38c-13.12-13.55-19.49-29.86-19.49-49.88,0-19.87,6.54-36.48,19.49-49.43,12.74-13.17,29.18-19.84,48.87-19.84s36.13,6.68,48.92,19.89c12.9,12.9,19.43,29.51,19.43,49.38C1425.58,244.94,1419.21,261.25,1406.15,274.75Zm19.43-144c-19-20.58-44.6-31-76.17-31-33.06,0-60.53,11.86-84,36.24-23,24-34.74,53.88-34.74,88.88s11.69,64.89,34.74,88.88c23.43,24.39,50.89,36.23,84,36.23,31.65,0,57.22-10.51,76.17-31.3v25.33h58.15V105.78h-58.15ZM1146.92,344.06h58.15V.08h-58.15Zm-93.83,0h58.15V.08h-58.15ZM939.36,274.75c-12.89,12.9-29.35,19.43-48.92,19.43s-36-6.53-48.87-19.38c-13.12-13.55-19.49-29.86-19.49-49.88,0-19.87,6.54-36.48,19.49-49.43,12.74-13.17,29.18-19.84,48.87-19.84s36.13,6.68,48.92,19.89c12.9,12.9,19.44,29.51,19.44,49.38C958.8,244.94,952.43,261.25,939.36,274.75Zm19.44-144c-19-20.58-44.61-31-76.17-31-33.07,0-60.54,11.86-84,36.24-23,24-34.74,53.88-34.74,88.88s11.69,64.89,34.74,88.88c23.43,24.39,50.89,36.23,84,36.23,31.64,0,57.21-10.51,76.17-31.3v25.33H1017V105.78H958.8Zm-282.73,15H546.72V13.87H485.36V344.06h61.36V204.82H676.07V344.06h61.36V13.87H676.07Z"
    transform="translate(0 -0.08)"
  ></path>
</svg>
