<svg xmlns="http://www.w3.org/2000/svg" id="Layer_2" viewBox="0 0 22.85 27.49"><g id="Layer_1-2"><polygon points="11.41 7.58 0 14.18 2.58 15.67 11.41 10.56 20.26 15.67 22.85 14.18 11.41 7.58"></polygon><polygon points="19.34 27.49 11.41 22.91 3.49 27.48 3.49 27.48 11.41 25.63 19.34 27.49 19.34 27.49"></polygon><polygon points="11.43 3.54 4.42 7.59 6.99 9.07 11.41 6.53 15.84 9.07 18.42 7.58 11.43 3.54"></polygon><polygon points="10.49 13.23 7.9 14.72 7.91 17.69 10.49 16.21 10.49 13.23"></polygon><polygon points="6.07 15.79 3.48 17.27 3.49 20.25 6.07 18.77 6.07 15.79"></polygon><polygon points="7.91 22.78 10.49 21.3 10.49 18.32 7.9 19.81 7.91 22.78"></polygon><polygon points="6.07 20.88 3.48 22.36 3.49 25.34 6.07 23.86 6.07 20.88"></polygon><polygon points="12.33 13.22 14.91 14.71 14.9 17.68 12.33 16.2 12.33 13.22"></polygon><polygon points="16.74 15.77 19.32 17.26 19.32 20.23 16.74 18.75 16.74 15.77"></polygon><polygon points="14.9 22.78 12.33 21.3 12.33 18.32 14.91 19.81 14.9 22.78"></polygon><polygon points="16.75 20.88 19.33 22.36 19.32 25.34 16.75 23.86 16.75 20.88"></polygon><path d="m13.88,1.02s-.05-.05-.08-.07c-1.34-1.26-3.44-1.27-4.78-.01-.03.03-.06.06-.09.09-.66.66-1.03,1.54-1.03,2.48,0,.27.04.54.1.8l1.26-.73c-.02-.57.19-1.15.62-1.59.12-.12.26-.22.41-.31.69-.42,1.56-.42,2.25.01.14.08.27.18.38.3.43.43.64,1,.63,1.57l1.26.73c.06-.25.09-.51.09-.78,0-.94-.36-1.82-1.03-2.48Z"></path></g></svg>