<svg width="86" height="86" viewBox="0 0 86 86" fill="none" xmlns="http://www.w3.org/2000/svg">
<path d="M69.5786 67.7013C59.5597 79.3603 36.795 82.1268 30.6494 71.4164C23.0809 58.2555 40.5694 50.5882 49.1457 38.8502C54.0662 32.0919 54.3428 28.0014 53.3943 22.1126C52.8607 18.8125 49.6397 14.307 47.0708 11.1452C45.9444 9.74219 47.3277 7.76608 49.1654 8.1613C62.1879 11.0662 73.2146 20.4329 76.9494 31.1434C81.1783 43.2964 79.8938 55.7656 69.6181 67.7013M43 0C19.2472 0 0 19.2472 0 43C0 66.7528 19.2472 86 43 86C66.7528 86 86 66.7528 86 43C86 19.2472 66.7528 0 43 0" fill="white"/>
</svg>
