<?xml version="1.0" encoding="UTF-8" standalone="no" ?>
<!DOCTYPE svg PUBLIC "-//W3C//DTD SVG 1.1//EN" "http://www.w3.org/Graphics/SVG/1.1/DTD/svg11.dtd">
<svg xmlns="http://www.w3.org/2000/svg" xmlns:xlink="http://www.w3.org/1999/xlink" version="1.1" width="640" height="180" viewBox="0 0 640 180">
<desc>Created with Fabric.js 3.6.6</desc>
<defs>
</defs>
<g transform="matrix(1 0 0 1 287 87)"  >
<g style=""   >
		<g transform="matrix(1 0 0 1 -246.15 -24.64)" id="Layer_1"  >
<path style="stroke: none; stroke-width: 1; stroke-dasharray: none; stroke-linecap: butt; stroke-dashoffset: 0; stroke-linejoin: miter; stroke-miterlimit: 4; fill: rgb(36,28,28); fill-rule: nonzero; opacity: 1;"  transform=" translate(-253.85, -475.37)" d="M 285.31 444.3 h -3.07 c -5.75 -17.45 -15.54 -27.43 -28.58 -27.43 c -9.4 0 -22.82 6.71 -22.82 20.71 c 0 32.03 63.1 26.09 63.1 64.06 c 0 15.54 -14 36.06 -43.35 36.06 c -8.44 0 -27.81 -2.3 -31.84 -5.95 c -3.84 -3.45 -4.41 -24.55 -4.99 -30.88 h 2.88 c 2.88 7.86 12.08 32.99 35.48 32.99 c 13.04 0 27.62 -7.67 27.62 -24.55 c 0 -34.52 -63.1 -24.17 -63.1 -64.44 c 0 -15.54 11.51 -31.84 40.09 -31.84 c 9.59 0 19.56 1.15 28.58 5.75 V 444.3 z" stroke-linecap="round" />
</g>
		<g transform="matrix(1 0 0 1 -184.61 -2.59)" id="Layer_1"  >
<path style="stroke: none; stroke-width: 1; stroke-dasharray: none; stroke-linecap: butt; stroke-dashoffset: 0; stroke-linejoin: miter; stroke-miterlimit: 4; fill: rgb(36,28,28); fill-rule: nonzero; opacity: 1;"  transform=" translate(-315.39, -497.41)" d="M 334.69 477.26 h -11.75 c -6.88 0 -9.23 1.68 -9.23 12.09 v 32.4 c 0 7.39 4.53 10.24 10.75 10.24 c 4.7 0 8.56 -0.84 11.75 -1.34 v 3.36 c -4.7 1.68 -9.4 3.69 -16.96 3.69 c -13.93 0 -17.29 -8.73 -17.29 -16.79 v -37.27 c 0 -5.54 -0.34 -6.04 -2.01 -6.72 c -1.34 -0.5 -5.37 -0.67 -5.37 -2.35 c 0 -1.17 1.51 -2.35 2.85 -3.69 c 11.25 -11.42 12.76 -13.77 14.44 -13.77 c 1.01 0 1.85 0.5 1.85 2.69 v 11.75 h 20.99 V 477.26 z" stroke-linecap="round" />
</g>
		<g transform="matrix(1 0 0 1 -135.55 2.79)" id="Layer_1"  >
<path style="stroke: none; stroke-width: 1; stroke-dasharray: none; stroke-linecap: butt; stroke-dashoffset: 0; stroke-linejoin: miter; stroke-miterlimit: 4; fill: rgb(36,28,28); fill-rule: nonzero; opacity: 1;"  transform=" translate(-364.45, -502.79)" d="M 339.77 533.67 c 8.06 0 10.07 -2.35 10.07 -15.11 v -29.88 c 0 -4.03 -0.84 -5.71 -4.03 -7.22 c -2.35 -1.18 -3.19 -1.34 -3.19 -2.35 c 0 -1.34 1.34 -1.85 7.72 -4.7 c 7.39 -3.19 7.72 -5.2 9.57 -5.2 c 1.18 0 1.68 0.67 1.68 1.85 v 5.54 c 0 1.34 0.67 2.01 1.68 2.01 c 1.51 0 9.91 -8.39 18.47 -8.39 c 4.53 0 7.39 2.01 7.39 5.88 c 0 3.02 -1.85 5.71 -7.72 5.71 c -2.18 0 -6.21 -0.5 -9.23 -0.5 c -6.04 0 -10.58 3.02 -10.58 12.09 v 27.53 c 0 10.41 1.85 12.42 10.41 12.76 v 2.69 h -32.24 V 533.67 z" stroke-linecap="round" />
</g>
		<g transform="matrix(1 0 0 1 -76.41 3.96)" id="Layer_1"  >
<path style="stroke: none; stroke-width: 1; stroke-dasharray: none; stroke-linecap: butt; stroke-dashoffset: 0; stroke-linejoin: miter; stroke-miterlimit: 4; fill: rgb(36,28,28); fill-rule: nonzero; opacity: 1;"  transform=" translate(-423.59, -503.96)" d="M 430.98 488.68 c 0 -11.58 -4.37 -14.44 -11.42 -14.44 c -15.45 0 -9.07 17.29 -18.97 17.29 c -2.85 0 -4.87 -1.51 -4.87 -4.53 c 0 -6.21 15.11 -16.79 28.04 -16.79 c 11.25 0 18.97 5.71 18.97 20.15 v 36.77 c 0 3.86 2.35 4.87 4.2 4.87 c 2.52 0 4.2 -1.01 5.88 -2.52 l 1.68 1.85 c -2.35 3.69 -8.06 6.38 -13.1 6.38 c -5.2 0 -10.07 -3.69 -10.41 -9.91 c -7.89 7.22 -15.61 9.91 -21.99 9.91 c -9.57 0 -16.29 -5.71 -16.29 -13.1 c 0 -11.58 9.57 -14.94 29.21 -19.98 l 9.07 -2.35 V 488.68 z M 430.98 504.96 l -6.72 1.68 c -12.59 3.19 -19.14 7.05 -19.14 14.1 c 0 6.21 3.53 11.25 11.08 11.25 c 5.37 0 10.24 -3.36 14.77 -6.88 V 504.96 z" stroke-linecap="round" />
</g>
		<g transform="matrix(1 0 0 1 -31.5 -2.59)" id="Layer_1"  >
<path style="stroke: none; stroke-width: 1; stroke-dasharray: none; stroke-linecap: butt; stroke-dashoffset: 0; stroke-linejoin: miter; stroke-miterlimit: 4; fill: rgb(36,28,28); fill-rule: nonzero; opacity: 1;"  transform=" translate(-468.5, -497.41)" d="M 487.79 477.26 h -11.75 c -6.88 0 -9.23 1.68 -9.23 12.09 v 32.4 c 0 7.39 4.53 10.24 10.75 10.24 c 4.7 0 8.56 -0.84 11.75 -1.34 v 3.36 c -4.7 1.68 -9.4 3.69 -16.96 3.69 c -13.93 0 -17.29 -8.73 -17.29 -16.79 v -37.27 c 0 -5.54 -0.34 -6.04 -2.01 -6.72 c -1.34 -0.5 -5.37 -0.67 -5.37 -2.35 c 0 -1.17 1.51 -2.35 2.85 -3.69 c 11.25 -11.42 12.76 -13.77 14.44 -13.77 c 1.01 0 1.85 0.5 1.85 2.69 v 11.75 h 20.99 V 477.26 z" stroke-linecap="round" />
</g>
		<g transform="matrix(1 0 0 1 18.19 3.97)" id="Layer_1"  >
<path style="stroke: none; stroke-width: 1; stroke-dasharray: none; stroke-linecap: butt; stroke-dashoffset: 0; stroke-linejoin: miter; stroke-miterlimit: 4; fill: rgb(36,28,28); fill-rule: nonzero; opacity: 1;"  transform=" translate(-518.19, -503.97)" d="M 502.16 493.04 c -0.67 2.52 -1.17 5.37 -1.17 9.91 c 0 14.94 9.07 28.04 24.68 28.04 c 6.72 0 12.09 -2.35 19.48 -7.39 l 2.01 2.69 c -7.56 6.04 -14.94 11.42 -25.86 11.42 c -19.98 0 -32.07 -17.12 -32.07 -31.9 c 0 -21.15 14.77 -35.59 32.4 -35.59 c 14.1 0 25.18 11.58 25.18 21.99 c 0 0.67 -0.5 0.84 -1.68 0.84 H 502.16 z M 535.07 489.01 c -0.67 -9.07 -6.55 -15.45 -15.11 -15.45 c -9.74 0 -15.11 7.89 -16.96 15.45 H 535.07 z" stroke-linecap="round" />
</g>
		<g transform="matrix(1 0 0 1 86.43 23.1)" id="Layer_1"  >
<path style="stroke: none; stroke-width: 1; stroke-dasharray: none; stroke-linecap: butt; stroke-dashoffset: 0; stroke-linejoin: miter; stroke-miterlimit: 4; fill: rgb(36,28,28); fill-rule: nonzero; opacity: 1;"  transform=" translate(-586.43, -523.1)" d="M 583.91 518.39 c -3.69 0 -5.71 -0.34 -7.56 -0.84 c -4.36 3.02 -9.91 5.2 -9.91 9.07 c 0 4.7 5.2 5.71 34.59 7.05 c 12.09 0.5 17.13 5.71 17.13 14.61 c 0 21.83 -21.32 27.7 -40.13 27.7 c -12.76 0 -29.38 -3.02 -29.38 -14.1 c 0 -7.89 5.71 -11.92 19.14 -18.64 c -6.88 -3.36 -11.59 -9.07 -11.59 -13.93 c 0 -5.37 8.06 -7.89 15.61 -13.6 c -9.4 -4.03 -15.61 -11.25 -15.61 -21.99 c 0 -14.61 10.91 -23.5 26.36 -23.5 c 10.58 0 19.64 4.03 22.83 4.03 c 3.53 0 8.39 -2.01 13.1 -2.01 c 3.86 0 5.71 1.01 5.71 3.53 c 0 2.85 -2.01 4.53 -5.37 4.53 c -3.36 0 -5.2 -2.01 -7.89 -2.01 c -2.35 0 -3.69 1.34 -3.69 3.53 c 0 4.53 2.18 5.37 2.18 13.26 C 609.43 508.82 596.67 518.39 583.91 518.39 z M 583.24 572.62 c 13.6 0 26.53 -6.04 26.53 -18.3 c 0 -7.05 -5.88 -9.91 -35.59 -9.91 c -6.55 2.52 -13.77 7.56 -13.77 15.45 C 560.41 568.26 570.82 572.62 583.24 572.62 z M 581.4 473.57 c -8.9 0 -14.44 7.89 -14.44 19.31 c 0 12.42 5.88 22.16 17.29 22.16 c 8.9 0 14.44 -5.71 14.44 -16.45 C 598.69 484.48 592.81 473.57 581.4 473.57 z" stroke-linecap="round" />
</g>
		<g transform="matrix(1 0 0 1 156.42 23.77)" id="Layer_1"  >
<path style="stroke: none; stroke-width: 1; stroke-dasharray: none; stroke-linecap: butt; stroke-dashoffset: 0; stroke-linejoin: miter; stroke-miterlimit: 4; fill: rgb(36,28,28); fill-rule: nonzero; opacity: 1;"  transform=" translate(-656.42, -523.77)" d="M 654.24 471.55 v 2.69 c -6.21 0.17 -8.23 2.01 -8.23 6.04 c 0 5.88 11.42 27.2 15.78 44.16 h 0.34 c 5.04 -16.29 13.43 -38.78 13.43 -43.65 c 0 -4.7 -3.19 -5.71 -7.39 -6.55 v -2.69 h 20.82 v 2.69 c -4.03 1.68 -5.54 3.36 -9.57 14.1 l -24.51 66.15 c -3.86 10.58 -9.07 21.49 -17.96 21.49 c -4.53 0 -6.72 -3.02 -6.72 -5.88 c 0 -4.2 3.02 -5.88 11.58 -7.72 c 4.7 -1.01 5.88 -1.34 9.4 -11.08 c 2.01 -5.54 4.03 -10.91 4.03 -12.59 c 0 -1.01 -0.5 -2.01 -1.17 -3.53 l -21.32 -52.21 c -2.18 -5.2 -3.86 -7.39 -8.9 -8.73 v -2.69 H 654.24 z" stroke-linecap="round" />
</g>
		<g transform="matrix(1 0 0 1 233.16 -16.86)" id="Layer_1"  >
<path style="stroke: none; stroke-width: 1; stroke-dasharray: none; stroke-linecap: butt; stroke-dashoffset: 0; stroke-linejoin: miter; stroke-miterlimit: 4; fill: rgb(70,164,71); fill-rule: nonzero; opacity: 1;"  transform=" translate(-733.16, -483.14)" d="M 678.09 533 c 12.26 -2.69 15.61 -6.21 29.72 -24.51 l 19.64 -25.52 l -28.04 -39.29 c -5.88 -8.23 -7.89 -9.23 -17.96 -10.41 v -3.36 h 43.82 v 3.36 c -8.23 0.34 -10.24 2.69 -10.24 5.2 c 0 5.37 7.05 14.77 21.15 34.59 c 4.7 -6.04 22.16 -27.2 22.16 -33.58 c 0 -3.86 -3.36 -5.88 -11.25 -6.21 v -3.36 h 38.78 v 3.36 c -9.91 0.17 -20.15 7.39 -29.38 19.64 l -17.96 23.84 l 29.55 42.48 c 5.54 8.06 10.91 12.26 20.15 13.77 v 3.36 h -47.35 V 533 c 10.58 -0.17 13.6 -2.18 13.6 -5.71 c 0 -7.39 -14.78 -25.69 -24.34 -39.45 c -7.05 8.39 -25.86 30.89 -25.86 37.78 c 0 5.2 6.88 6.72 13.6 7.39 v 3.36 h -39.79 V 533 z" stroke-linecap="round" />
</g>
		<g transform="matrix(1 0 0 1 -240.25 59.02)" id="Layer_1"  >
<path style="stroke: none; stroke-width: 1; stroke-dasharray: none; stroke-linecap: butt; stroke-dashoffset: 0; stroke-linejoin: miter; stroke-miterlimit: 4; fill: rgb(70,164,71); fill-rule: nonzero; opacity: 1;"  transform=" translate(-259.75, -559.02)" d="M 265.12 558.25 c 2.46 -0.92 4.89 -2.6 4.89 -6.55 c 0 -4.5 -4.13 -7.08 -11.32 -7.08 c -0.92 0 -1.61 0.02 -2.27 0.05 c -1.29 0.04 -2.82 0.04 -4.47 0 c -0.95 -0.02 -1.92 -0.05 -2.89 -0.05 h -0.75 v 2.36 h 0.75 c 2.3 0 2.59 0.12 2.59 3.1 c 0 1.55 -0.06 4.51 -0.11 7.69 c -0.07 3.68 -0.14 7.64 -0.14 10.03 c 0 2.99 -0.3 3.1 -2.63 3.1 h -0.75 v 2.35 h 7.08 c 0.8 0 1.69 0.04 2.53 0.08 l 0.3 0.01 c 0.79 0.04 1.51 0.07 2.05 0.07 c 7.2 0 11.49 -2.9 11.49 -7.77 C 271.47 560.86 268.3 559.15 265.12 558.25 z M 264.84 552.34 c 0 2.16 -0.7 4.64 -6.14 4.64 c -2.12 0 -2.12 0 -2.12 -0.92 v -7.02 c 0 -1.44 0.33 -2.07 2.29 -2.07 C 263.11 546.97 264.84 548.52 264.84 552.34 z M 256.58 561.28 c 0 -1.78 0 -1.78 1.95 -1.78 c 5.37 0 7.77 1.85 7.77 6.01 c 0 3.73 -2.19 5.54 -6.7 5.54 c -3.02 0 -3.02 0 -3.02 -1.18 V 561.28 z" stroke-linecap="round" />
</g>
		<g transform="matrix(1 0 0 1 -211.59 64.23)" id="Layer_1"  >
<path style="stroke: none; stroke-width: 1; stroke-dasharray: none; stroke-linecap: butt; stroke-dashoffset: 0; stroke-linejoin: miter; stroke-miterlimit: 4; fill: rgb(70,164,71); fill-rule: nonzero; opacity: 1;"  transform=" translate(-288.41, -564.23)" d="M 294.71 568.62 c -1.9 1.29 -3.09 1.75 -4.54 1.75 c -3.81 0 -5.54 -3.32 -5.54 -6.4 c 0 -0.78 0.06 -1.33 0.15 -1.78 h 10.36 c 1.09 0 1.18 -0.74 1.18 -0.96 c 0 -3 -3.07 -6.35 -7.17 -6.35 c -5.14 0 -9.01 4.22 -9.01 9.82 c 0 4.29 3.59 8.88 8.92 8.88 c 2.97 0 4.96 -1.39 7.06 -3.08 l 0.57 -0.45 l -1.38 -1.84 L 294.71 568.62 z M 285.43 559.68 c 0.45 -1.05 1.4 -2.44 3.28 -2.44 c 1.49 0 2.6 0.93 2.98 2.44 H 285.43 z" stroke-linecap="round" />
</g>
		<g transform="matrix(1 0 0 1 -167.57 58.92)" id="Layer_1"  >
<path style="stroke: none; stroke-width: 1; stroke-dasharray: none; stroke-linecap: butt; stroke-dashoffset: 0; stroke-linejoin: miter; stroke-miterlimit: 4; fill: rgb(70,164,71); fill-rule: nonzero; opacity: 1;"  transform=" translate(-332.43, -558.92)" d="M 336.87 546.97 h 0.75 c 1.52 0 1.52 0.34 1.52 0.66 c 0 0.93 -0.81 2.13 -2.57 4.75 c -0.85 1.26 -1.87 2.78 -3.13 4.75 c -0.82 -1.31 -1.53 -2.45 -2.15 -3.44 c -2.26 -3.59 -3.4 -5.4 -3.4 -6.2 c 0 -0.31 0.78 -0.53 1.9 -0.53 h 0.75 v -2.36 h -11.9 v 2.2 l 0.58 0.14 c 1.34 0.31 1.85 0.43 3.19 2.42 l 7.06 10.6 v 7.82 c 0 3.06 -0.07 3.06 -3.63 3.1 l -0.74 0.01 v 2.35 h 13.91 v -2.35 l -0.74 -0.01 c -3.56 -0.04 -3.62 -0.04 -3.62 -3.1 v -7.77 l 6.93 -9.95 c 1.92 -2.73 2.81 -3 3.95 -3.11 l 0.68 -0.06 v -2.29 h -9.33 V 546.97 z" stroke-linecap="round" />
</g>
		<g transform="matrix(1 0 0 1 -141.36 64.23)" id="Layer_1"  >
<path style="stroke: none; stroke-width: 1; stroke-dasharray: none; stroke-linecap: butt; stroke-dashoffset: 0; stroke-linejoin: miter; stroke-miterlimit: 4; fill: rgb(70,164,71); fill-rule: nonzero; opacity: 1;"  transform=" translate(-358.64, -564.23)" d="M 358.64 554.88 c -4.58 0 -9.44 3.28 -9.44 9.35 c 0 6.07 4.86 9.35 9.44 9.35 c 4.57 0 9.44 -3.28 9.44 -9.35 C 368.07 558.16 363.21 554.88 358.64 554.88 z M 358.64 557.24 c 1.12 0 4.51 0 4.51 7 c 0 7 -3.4 7 -4.51 7 c -1.12 0 -4.52 0 -4.52 -7 C 354.12 557.24 357.52 557.24 358.64 557.24 z" stroke-linecap="round" />
</g>
		<g transform="matrix(1 0 0 1 -114.44 64.22)" id="Layer_1"  >
<path style="stroke: none; stroke-width: 1; stroke-dasharray: none; stroke-linecap: butt; stroke-dashoffset: 0; stroke-linejoin: miter; stroke-miterlimit: 4; fill: rgb(70,164,71); fill-rule: nonzero; opacity: 1;"  transform=" translate(-385.56, -564.22)" d="M 393.78 569.9 c -0.18 0 -0.32 -0.54 -0.32 -1.26 v -13.8 l -7.23 0.43 v 2.03 l 0.63 0.1 c 1.83 0.3 2.11 0.35 2.11 4.22 v 6.84 c -0.37 0.85 -2.27 2.16 -3.96 2.16 c -1.94 0 -3.02 -1.28 -3.02 -3.62 v -12.18 l -6.98 0.44 v 2.01 l 0.61 0.11 c 1.55 0.28 1.87 0.34 1.87 5.47 v 4.24 c 0 2.78 0.62 6.48 5.97 6.48 c 2.77 0 4.5 -0.9 5.76 -1.88 v 1.92 l 6.89 -1.75 v -2.57 l -1.25 0.38 C 394.53 569.8 394.21 569.9 393.78 569.9 z" stroke-linecap="round" />
</g>
		<g transform="matrix(1 0 0 1 -88.71 63.93)" id="Layer_1"  >
<path style="stroke: none; stroke-width: 1; stroke-dasharray: none; stroke-linecap: butt; stroke-dashoffset: 0; stroke-linejoin: miter; stroke-miterlimit: 4; fill: rgb(70,164,71); fill-rule: nonzero; opacity: 1;"  transform=" translate(-411.29, -563.93)" d="M 415.7 554.88 c -1.77 0 -3.4 1.14 -4.38 1.82 c 0 0 -0.01 0 -0.01 0.01 v -0.87 c 0 -0.73 -0.47 -1.22 -1.18 -1.22 c -0.45 0 -0.74 0.22 -1.02 0.42 c -0.29 0.22 -0.73 0.54 -1.72 0.97 l -0.31 0.14 c -1.57 0.7 -2.11 0.94 -2.11 1.75 c 0 0.68 0.52 0.93 0.94 1.13 l 0.3 0.15 c 0.47 0.22 0.6 0.32 0.6 1.16 v 7.62 c 0 3.1 -0.42 3.1 -1.82 3.1 h -0.75 v 2.18 h 9.72 v -2.15 l -0.72 -0.03 c -1.64 -0.06 -1.93 -0.08 -1.93 -2.5 v -7.02 c 0 -2.06 0.98 -2.33 1.95 -2.33 c 0.4 0 0.87 0.04 1.3 0.07 c 0.41 0.03 0.78 0.06 1.05 0.06 c 2.52 0 2.72 -1.69 2.72 -2.2 C 418.33 555.74 417.32 554.88 415.7 554.88 z" stroke-linecap="round" />
</g>
		<g transform="matrix(1 0 0 1 -46.84 59.02)" id="Layer_1"  >
<path style="stroke: none; stroke-width: 1; stroke-dasharray: none; stroke-linecap: butt; stroke-dashoffset: 0; stroke-linejoin: miter; stroke-miterlimit: 4; fill: rgb(70,164,71); fill-rule: nonzero; opacity: 1;"  transform=" translate(-453.16, -559.02)" d="M 458.54 558.25 c 2.46 -0.92 4.89 -2.6 4.89 -6.55 c 0 -4.5 -4.13 -7.08 -11.32 -7.08 c -0.92 0 -1.61 0.02 -2.27 0.05 c -1.29 0.04 -2.82 0.04 -4.47 0 c -0.95 -0.02 -1.92 -0.05 -2.89 -0.05 h -0.75 v 2.36 h 0.75 c 2.3 0 2.59 0.12 2.59 3.1 c 0 1.55 -0.06 4.51 -0.11 7.69 c -0.07 3.68 -0.14 7.64 -0.14 10.03 c 0 2.99 -0.3 3.1 -2.63 3.1 h -0.75 v 2.35 h 7.08 c 0.8 0 1.69 0.04 2.53 0.08 l 0.3 0.01 c 0.79 0.04 1.51 0.07 2.05 0.07 c 7.2 0 11.49 -2.9 11.49 -7.77 C 464.89 560.86 461.72 559.15 458.54 558.25 z M 458.25 552.34 c 0 2.16 -0.7 4.64 -6.14 4.64 c -2.12 0 -2.12 0 -2.12 -0.92 v -7.02 c 0 -1.44 0.33 -2.07 2.29 -2.07 C 456.53 546.97 458.25 548.52 458.25 552.34 z M 450 561.28 c 0 -1.78 0 -1.78 1.95 -1.78 c 5.37 0 7.77 1.85 7.77 6.01 c 0 3.73 -2.19 5.54 -6.7 5.54 c -3.02 0 -3.02 0 -3.02 -1.18 V 561.28 z" stroke-linecap="round" />
</g>
		<g transform="matrix(1 0 0 1 -18.17 64.23)" id="Layer_1"  >
<path style="stroke: none; stroke-width: 1; stroke-dasharray: none; stroke-linecap: butt; stroke-dashoffset: 0; stroke-linejoin: miter; stroke-miterlimit: 4; fill: rgb(70,164,71); fill-rule: nonzero; opacity: 1;"  transform=" translate(-481.83, -564.23)" d="M 488.13 568.62 c -1.9 1.29 -3.09 1.75 -4.54 1.75 c -3.81 0 -5.54 -3.32 -5.54 -6.4 c 0 -0.78 0.06 -1.33 0.15 -1.78 h 10.36 c 1.09 0 1.18 -0.74 1.18 -0.96 c 0 -3 -3.07 -6.35 -7.17 -6.35 c -5.14 0 -9.01 4.22 -9.01 9.82 c 0 4.29 3.59 8.88 8.92 8.88 c 2.97 0 4.96 -1.39 7.06 -3.08 l 0.57 -0.45 l -1.38 -1.84 L 488.13 568.62 z M 478.84 559.68 c 0.45 -1.05 1.4 -2.44 3.28 -2.44 c 1.49 0 2.6 0.93 2.98 2.44 H 478.84 z" stroke-linecap="round" />
</g>
		<g transform="matrix(1 0 0 1 4.13 64.25)" id="Layer_1"  >
<path style="stroke: none; stroke-width: 1; stroke-dasharray: none; stroke-linecap: butt; stroke-dashoffset: 0; stroke-linejoin: miter; stroke-miterlimit: 4; fill: rgb(70,164,71); fill-rule: nonzero; opacity: 1;"  transform=" translate(-504.13, -564.25)" d="M 505.74 562.12 c -1.96 -1 -3.17 -1.68 -3.17 -3.15 c 0 -1.09 0.58 -1.73 1.56 -1.73 c 1.07 0 2.04 0.84 3.01 2.62 c 0.34 0.51 0.81 0.59 1.05 0.59 c 0.57 0 1.01 -0.47 1.01 -1.09 l -0.08 -2.82 c 0 -0.51 -0.35 -0.94 -0.81 -1.05 c -1.04 -0.34 -2.52 -0.59 -3.53 -0.59 c -4.24 0 -6.53 2.74 -6.53 5.33 c 0 2.86 2.35 4.13 4.43 5.26 c 2.09 1.14 3.36 1.94 3.36 3.47 c 0 1.81 -1.44 2.29 -2.2 2.29 c -1.74 0 -2.43 -1.32 -3.05 -2.78 c -0.3 -0.71 -0.56 -1.33 -1.23 -1.33 c -0.71 0 -1.22 0.5 -1.22 1.17 c -0.01 0.16 -0.15 0.81 -0.23 1.2 c -0.15 0.68 -0.2 0.94 -0.2 1.12 c 0 1.53 3.19 2.97 5.67 2.97 c 4.43 0 6.78 -3.42 6.78 -5.89 C 510.36 564.46 507.79 563.17 505.74 562.12 z" stroke-linecap="round" />
</g>
		<g transform="matrix(1 0 0 1 23.81 62.57)" id="Layer_1"  >
<path style="stroke: none; stroke-width: 1; stroke-dasharray: none; stroke-linecap: butt; stroke-dashoffset: 0; stroke-linejoin: miter; stroke-miterlimit: 4; fill: rgb(70,164,71); fill-rule: nonzero; opacity: 1;"  transform=" translate(-523.82, -562.57)" d="M 528.53 570.38 c -0.69 0.12 -1.48 0.25 -2.39 0.25 c -1.76 0 -1.99 -0.99 -1.99 -1.86 v -8.26 c 0 -2.33 0.37 -2.33 1.6 -2.33 h 3.74 v -2.95 h -5.35 v -2.25 c 0 -1.06 -0.63 -1.43 -1.22 -1.43 c -0.62 0 -0.92 0.32 -2.22 1.67 c -0.48 0.5 -1.13 1.18 -1.99 2.06 l -0.18 0.17 c -0.36 0.34 -0.77 0.73 -0.77 1.3 c 0 0.93 1.02 1.13 1.57 1.24 c 0.11 0.02 0.21 0.04 0.25 -0.02 c 0.04 0.11 0.06 0.47 0.06 1.09 v 9.5 c 0 3.2 1.88 5.03 5.16 5.03 c 1.87 0 3.12 -0.46 4.22 -0.86 l 0.85 -0.3 v -2.26 L 528.53 570.38 z" stroke-linecap="round" />
</g>
</g>
</g>
</svg>