<svg xmlns="http://www.w3.org/2000/svg" width="339" height="78" viewBox="0 0 339 78"><g fill="none"><path fill="#00183C" d="M12.4 9.12V0H0v9.12c.011 12.532 10.168 22.689 22.7 22.7h9.45v-12.4H22.7c-5.686-.006-10.294-4.614-10.3-10.3zm0 45.24V34.53H0v19.83c.011 12.532 10.168 22.689 22.7 22.7h9.45v-12.4H22.7c-5.686-.006-10.294-4.614-10.3-10.3zM226 9.12V0h-12.4v9.12c.011 12.528 10.162 22.683 22.69 22.7h9.46v-12.4h-9.46c-5.682-.011-10.284-4.618-10.29-10.3zm0 45.24V34.53h-12.4v19.83c.011 12.528 10.162 22.683 22.69 22.7h9.46v-12.4h-9.46c-5.682-.011-10.284-4.618-10.29-10.3zm44.3-45.24V0h-12.4v9.12c.011 12.528 10.162 22.683 22.69 22.7h9.46v-12.4h-9.46c-5.682-.011-10.284-4.618-10.29-10.3zm0 45.24V34.53h-12.4v19.83c.011 12.528 10.162 22.683 22.69 22.7h9.46v-12.4h-9.46c-5.682-.011-10.284-4.618-10.29-10.3zM70.27 17.12a22.06 22.06 0 00-12.5 4l-1.05.71V0h-12.4v77.07h12.4V44.76c0-9.1 4.37-15.24 12-15.24h1.68c5.68 0 10.3 5.53 10.3 11.21v36.34h12.4V40.73c-.02-12.12-7.73-23.61-22.83-23.61zm35.79 22.69v37.32h12.4V39.81c.006-5.68 4.61-10.284 10.29-10.29h6.42v-12.4h-6.42c-12.524.017-22.673 10.166-22.69 22.69zm208.55 14.55V0h-12.39v54.36c.011 12.528 10.162 22.683 22.69 22.7h6.42V64.65h-6.42c-5.685 0-10.294-4.605-10.3-10.29zM171.4 17.29c-17.59 0-30.36 12.62-30.36 30 0 17.38 12.77 30 30.36 30s30.36-12.62 30.36-30c0-17.38-12.76-30-30.36-30zm0 48.5c-10 0-16.72-7.43-16.72-18.49 0-11.06 6.72-18.49 16.72-18.49 9.85 0 16.72 7.6 16.72 18.49 0 10.89-6.87 18.49-16.72 18.49z"/><path fill="#02354C" d="M335.89 3.07a1.26 1.26 0 00-1.36-1.29h-1.43v4.09h.49V4.34h1l.74 1.53h.56l-.8-1.63a1.18 1.18 0 00.8-1.17zm-1.37.77h-.93V2.28h.94a.77.77 0 01.86.78.77.77 0 01-.87.78z"/><path fill="#02354C" d="M334.36 0a3.83 3.83 0 00-3.82 3.85c-.003.512.1 1.02.3 1.49a3.79 3.79 0 003.52 2.37 3.83 3.83 0 003.82-3.86A3.83 3.83 0 00334.36 0zm0 7.24a3.26 3.26 0 01-3.06-2.08 3.24 3.24 0 01-.04-2.63 3.27 3.27 0 013.1-2.07 3.33 3.33 0 013.32 3.39 3.33 3.33 0 01-3.32 3.39z"/></g></svg>