<svg viewBox="0 0 1097.16 242.14" xmlns="http://www.w3.org/2000/svg"><g fill="#1d2327"><path d="m1086.88 182.6c-5.67 0-10.28-4.61-10.28-10.28s4.61-10.28 10.28-10.28 10.28 4.61 10.28 10.28-4.61 10.28-10.28 10.28zm0-18.56c-4.57 0-8.28 3.71-8.28 8.28s3.71 8.28 8.28 8.28 8.28-3.71 8.28-8.28-3.71-8.28-8.28-8.28z"/><path d="m1088.76 176.89-1.39-2.59c-.2.01-.42.02-.65.02-.43 0-.8-.04-1.14-.1v2.66h-2.12v-9h3.69c2.35 0 3.71 1.15 3.71 3.08 0 1.28-.56 2.21-1.54 2.76l1.71 3.15h-2.28zm-.05-5.8c0-.84-.48-1.36-1.76-1.36h-1.37v2.79c.32.06.68.08 1.08.08 1.42 0 2.05-.53 2.05-1.52z"/><path d="m1075.68 68.94c.14-.39.52-.65.94-.65h19.53c.7 0 1.19.71.93 1.36l-39.39 99.53c-6.26 15.62-16.15 23.26-30.22 23.26-6.27 0-10.96-1.71-13.65-3.53-.27-.18-.42-.49-.42-.81v-16.12c0-.76.8-1.23 1.47-.89.07.03.14.07.21.1.13.07.26.13.39.19 2.44 1.19 5.5 2.36 9.04 2.47h.09c6.71-.03 12.55-3.72 15.64-9.17 1.65-2.91 1.81-6.43.61-9.55s-5.28-13.66-5.28-13.66l-27.62-71.82c-.25-.66.23-1.36.93-1.36h13.54c4.26 0 8.05 2.69 9.44 6.71l18.46 53.04c.3.87 1.53.9 1.87.04l23.48-59.14z"/><path d="m876.15 25.87v46.51c-7.63-5.36-16.92-8.52-26.93-8.52-27.09 0-48.88 23.07-46.79 50.58 1.75 23.07 20.48 41.62 43.56 43.18 10.57.71 20.47-2.1 28.64-7.38.66-.43 1.53.06 1.53.84v5.81c0 .55.45 1 1 1h9c5.52 0 10-4.48 10-10v-122.02c0-.55-.45-1-1-1h-18c-.55 0-1 .45-1 1zm-24.74 111.76c-16.57 1.32-30.36-12.46-29.04-29.04 1.04-13.04 11.6-23.61 24.65-24.65 16.57-1.32 30.36 12.46 29.04 29.04-1.04 13.04-11.6 23.61-24.65 24.65z"/><path d="m979.27 25.87v46.51c-7.63-5.36-16.92-8.52-26.93-8.52-27.09 0-48.88 23.07-46.79 50.58 1.75 23.07 20.48 41.62 43.56 43.18 10.57.71 20.47-2.1 28.64-7.38.66-.43 1.53.06 1.53.84v5.81c0 .55.45 1 1 1h9c5.52 0 10-4.48 10-10v-122.02c0-.55-.45-1-1-1h-18c-.55 0-1 .45-1 1zm-26.93 111.85c-14.85 0-26.93-12.08-26.93-26.93s12.08-26.93 26.93-26.93 26.93 12.08 26.93 26.93-12.08 26.93-26.93 26.93z"/><path d="m775.43 68.29c-.55 0-1 .45-1 1v41.99c-.26 14.64-12.22 26.44-26.92 26.44s-26.84-11.97-26.93-26.76v-41.67c0-.55-.45-1-1-1h-17.99c-.55 0-1 .45-1 1v42c.18 25.77 21.12 46.6 46.92 46.6s46.73-20.83 46.91-46.6v-42c0-.55-.45-1-1-1z"/><path d="m645.64 63.86c-10.01 0-19.3 3.16-26.93 8.52v-46.51c0-.55-.45-1-1-1h-9c-5.52 0-10 4.48-10 10v75.92c0 15.87 7.91 29.92 20 38.41 8.45 5.94 18.93 9.17 30.17 8.41 23.08-1.56 41.8-20.11 43.56-43.18 2.09-27.51-19.71-50.58-46.79-50.58zm2.2 73.77c-16.57 1.32-30.36-12.46-29.04-29.04 1.04-13.04 11.6-23.61 24.65-24.65 16.57-1.32 30.36 12.46 29.04 29.04-1.04 13.04-11.6 23.61-24.65 24.65z"/><path d="m563.5 128.04c-4.13 4.96-10.03 8.45-16.9 9.42-4.44.62-8.77.12-12.72-1.28-4.37-1.55-8.26-4.21-11.29-7.68-.49-.56-.24-1.43.47-1.63l46.59-13.43 19.24-5.53c.45-.13.76-.56.73-1.03-.07-.87-.17-1.74-.3-2.62-3.6-25.67-27.33-43.55-53-39.94-26.26 3.69-44.37 28.44-39.66 54.78 4.34 24.24 27.15 41.16 51.61 38.31 20.07-2.35 35.58-16.95 40.14-35.33.18-.74-.52-1.4-1.25-1.19l-22.68 6.5c-.38.11-.72.33-.98.64zm-33.19-41.11c6.15-3.24 13.59-3.97 20.25-1.96 6.37 1.87 11.95 6.05 15.5 11.84.34.56.04 1.29-.59 1.47l-48.54 13.92c-.63.18-1.27-.28-1.28-.93-.08-10.14 5.56-19.63 14.65-24.34z"/><path d="m440.85 63.86c-10.01 0-19.3 3.16-26.93 8.52v-46.51c0-.55-.45-1-1-1h-9c-5.52 0-10 4.48-10 10v75.92c0 15.87 7.91 29.92 20 38.41 8.45 5.94 18.93 9.17 30.17 8.41 23.08-1.56 41.8-20.11 43.56-43.18 2.09-27.51-19.71-50.58-46.79-50.58zm2.19 73.77c-16.59 1.31-30.34-12.44-29.03-29.03 1.03-13.05 11.6-23.63 24.66-24.66 16.59-1.31 30.34 12.44 29.03 29.03-1.03 13.05-11.6 23.63-24.66 24.66z"/><path d="m384.91 69.29v42h-.01c-.11 15.77-7.99 29.69-19.99 38.11-7.62 5.35-16.9 8.49-26.92 8.49-25.8 0-46.74-20.83-46.92-46.6h-.01v-42c0-.56.45-1 1-1h18c.55 0 1 .44 1 1v41.67c.09 14.79 12.12 26.76 26.93 26.76s26.63-11.77 26.92-26.38v-.06c.01-.28.01-.55 0-.83v-41.16c0-.56.45-1 1-1h18c.55 0 1 .44 1 1z"/><path d="m287.67 136.15c-1.73.88-3.76 1.62-6.05 2.1-1.84.4-3.83.63-5.98.63-9.49 0-18.1-4.32-18.12-16.3v-33.14c0-.55.45-1 1-1h22.27c.55 0 1-.45 1-1v-18c0-.55-.45-1-1-1h-22.27c-.55 0-1-.45-1-1v-25.07c0-.55-.45-1-1-1h-18c-.55 0-1 .45-1 1v25.07c0 .55-.45 1-1 1h-14.33c-.55 0-1 .45-1 1v18c0 .55.45 1 1 1h14.33c.55 0 1 .45 1 1v32.84c0 .18 0 .41.01.71 1.26 21.94 16.18 34.95 39.42 34.95 4.16-.01 7.57-.36 11.61-1.23.43-.09.8-.54.8-.98v-18.52c0-.87-.92-1.45-1.69-1.06z"/></g><circle cx="91.3" cy="91.3" fill="#d92145" r="91.3"/><path d="m72.98 130.34c-6.08 0-12.11 0-18.51 0v-41.03h-11.75v-17.19h11.71v-19.94h21.56c.08.98.22 1.94.22 2.89 0 23.38-.04 48.71.06 72.1 0 2.61-.83 3.22-3.29 3.16zm56.84-8.28c-9.35 8.06-20.19 10.84-31.79 5.88-12.1-5.17-18.39-14.83-18.52-28.1-.14-14.77-.07-29.54-.09-44.3v-3.36c7.06 0 13.59.04 20.1 0 1.88-.01 1.7 1.23 1.7 2.42v60.31c7.96-4.7 15.55-9.17 23.44-13.84-6.27-3.71-12.15-7.28-18.13-10.68-1.88-1.06-2.8-2.22-2.67-4.51.21-3.93.14-7.89.02-11.83-.06-1.87.58-2.48 2.43-2.75 12.12-1.76 25.37 5.48 30.77 16.94 5.49 11.64 2.75 25.16-7.27 33.79v.02z" fill="#fff"/><path d="m670.02 227.59v-55.4h31.4c11.03 0 16.2 7.14 16.2 14.1s-4.23 11.53-9.46 12.69c5.89.91 10.53 6.55 10.53 13.54 0 8.05-5.39 15.01-16.26 15.01l-32.4.06zm33.03-38.6c0-2.66-2.01-4.32-4.89-4.32h-13.85v8.62h13.85c2.91.03 4.89-1.57 4.89-4.29zm1.1 21.4c0-2.73-2.01-4.64-5.48-4.64h-14.35v9.37h14.35c3.42 0 5.48-1.72 5.48-4.73z" fill="#1d2327"/><path d="m727.77 227.59v-55.4h40.61v12.47h-26.32v8.62h25.72v12.44h-25.72v9.37h26.32v12.44z" fill="#1d2327"/><path d="m817.67 227.59-23.41-32.05v32.05h-14.29v-55.4h14.7l22.4 30.46v-30.46h14.35v55.37h-13.76v.03z" fill="#1d2327"/><path d="m863.91 195.73c1.66-3.13 4.17-5.77 7.24-7.55 3.1-1.79 6.67-2.73 10.28-2.69 3.73 0 6.96.78 9.68 2.38s4.79 3.57 6.11 5.98v-7.68h7.11v42.02h-7.14v-7.83c-1.38 2.44-3.48 4.48-6.24 6.11-2.76 1.6-5.98 2.41-9.65 2.41-3.6.03-7.14-.91-10.21-2.76-3.07-1.88-5.58-4.54-7.21-7.74-1.75-3.32-2.63-7.11-2.63-11.34.03-4.29.91-8.08 2.66-11.31zm31.4 3.1c-1.19-2.26-3.01-4.14-5.23-5.39-2.19-1.22-4.7-1.88-7.21-1.88s-5.01.63-7.24 1.85c-2.19 1.25-4.01 3.13-5.2 5.36-1.28 2.35-1.94 5.11-1.94 8.27s.66 6.02 1.94 8.4c1.19 2.26 2.98 4.14 5.2 5.45 2.19 1.25 4.67 1.91 7.21 1.88 2.54.03 5.04-.63 7.24-1.88 2.22-1.28 4.04-3.16 5.23-5.45 1.28-2.38 1.94-5.14 1.94-8.33s-.66-5.92-1.94-8.27z" fill="#1d2327"/><path d="m929.71 187.86c2.79-1.6 5.95-2.38 9.53-2.38 3.82 0 7.27.88 10.31 2.69 3.07 1.82 5.55 4.42 7.21 7.55 1.75 3.26 2.63 7.02 2.63 11.31s-.88 8.02-2.63 11.34c-1.63 3.2-4.14 5.89-7.24 7.74s-6.67 2.82-10.28 2.76c-3.67 0-6.89-.78-9.65-2.38s-4.86-3.6-6.24-6.05v7.74h-7.05v-56.74h7.05v22.56c1.44-2.51 3.54-4.54 6.36-6.14zm20.52 10.9c-1.19-2.26-3.01-4.1-5.23-5.36-2.19-1.22-4.7-1.85-7.24-1.85-2.51-.03-4.98.63-7.18 1.88-2.22 1.28-4.07 3.2-5.26 5.45-1.32 2.38-1.97 5.11-1.97 8.24s.66 5.92 1.97 8.33c1.19 2.26 3.04 4.17 5.26 5.45 2.19 1.22 4.67 1.88 7.21 1.88s5.01-.66 7.21-1.88c2.22-1.28 4.04-3.16 5.23-5.45 1.28-2.38 1.94-5.17 1.94-8.4s-.66-5.95-1.94-8.3z" fill="#1d2327"/><path d="m974.96 227.25c-2.57-1.1-4.64-2.63-6.11-4.61-1.5-1.97-2.35-4.32-2.48-6.8h7.27c.22 2.1 1.19 3.82 2.98 5.14s4.14 2.01 7.02 2.01c2.69 0 4.79-.6 6.36-1.75 1.57-1.19 2.32-2.66 2.32-4.45s-.81-3.2-2.48-4.1c-1.66-.91-4.2-1.79-7.68-2.63-2.63-.66-5.2-1.47-7.71-2.48-1.97-.85-3.73-2.13-5.11-3.76-1.41-1.66-2.13-3.85-2.13-6.55 0-2.13.66-4.2 1.94-5.89 1.28-1.79 3.13-3.2 5.51-4.26 2.38-1.07 5.08-1.57 8.15-1.57 4.7 0 8.49 1.19 11.37 3.54s4.45 5.58 4.64 9.65h-7.05c-.16-2.19-1.03-3.98-2.66-5.3s-3.82-2.01-6.55-2.01c-2.54 0-4.54.53-6.05 1.6s-2.26 2.48-2.26 4.23c-.03.63.09 1.25.31 1.85s.6 1.13 1.03 1.57c.97.94 2.13 1.69 3.42 2.16 1.88.69 3.76 1.28 5.7 1.82 2.54.66 5.01 1.44 7.43 2.41 1.91.78 3.57 2.01 4.92 3.57 1.38 1.6 2.07 3.67 2.13 6.2.03 2.22-.66 4.39-1.94 6.2-1.28 1.85-3.1 3.29-5.45 4.32s-5.04 1.57-8.08 1.57c-3.29-.06-6.2-.6-8.77-1.69z" fill="#1d2327"/><path d="m855.11 221.3h-3.04c-.56 0-1.1-.22-1.5-.6s-.63-.91-.63-1.47v-47.78h-7.05v49.79c0 1.85.75 3.63 2.07 4.95s3.13 2.04 4.98 2.04h5.14l.03-6.92z" fill="#1d2327"/><path d="m591.2 197.94c2.03-1.16 4.34-1.75 6.93-1.75 2.78 0 5.28.66 7.5 1.97 2.22 1.32 3.96 3.17 5.24 5.55 1.28 2.39 1.92 5.16 1.92 8.32s-.64 5.9-1.92 8.34-3.04 4.34-5.27 5.69c-2.24 1.35-4.73 2.03-7.47 2.03s-5.01-.58-7.02-1.75c-2.01-1.16-3.52-2.65-4.54-4.45v5.69h-5.13v-41.72h5.13v16.58c1.05-1.84 2.59-3.34 4.62-4.51zm14.94 8.01c-.94-1.73-2.21-3.04-3.81-3.95-1.6-.9-3.35-1.35-5.27-1.35s-3.62.46-5.21 1.38c-1.6.92-2.88 2.26-3.83 4-.96 1.75-1.44 3.77-1.44 6.06s.48 4.37 1.44 6.12 2.24 3.08 3.83 4c1.6.92 3.33 1.38 5.21 1.38s3.67-.46 5.27-1.38 2.87-2.25 3.81-4 1.41-3.81 1.41-6.17-.47-4.36-1.41-6.09z" fill="#1d2327"/><path d="m646.17 196.7-18.61 45.44h-5.3l6.09-14.88-12.46-30.56h5.69l9.7 25.03 9.58-25.03h5.3z" fill="#1d2327"/></svg>